<svg xmlns="http://www.w3.org/2000/svg" xmlns:xlink="http://www.w3.org/1999/xlink" width="500" zoomAndPan="magnify" viewBox="0 0 375 374.999991" height="500" preserveAspectRatio="xMidYMid meet" version="1.0"><defs><g/></defs><path fill="#5ce6c5" d="M 187.5 375 C 137.417969 375 90.332031 355.496094 54.917969 320.082031 C 19.503906 284.667969 0 237.582031 0 187.5 C 0 137.417969 19.503906 90.332031 54.917969 54.917969 C 90.332031 19.503906 137.417969 0 187.5 0 C 237.582031 0 284.667969 19.503906 320.082031 54.917969 C 355.496094 90.332031 375 137.417969 375 187.5 C 375 215.394531 367.175781 241.261719 366.816406 242.4375 C 363.695312 252.65625 359.667969 262.664062 354.839844 272.214844 L 373.214844 365.113281 C 373.578125 366.945312 373.011719 368.839844 371.707031 370.175781 C 370.398438 371.511719 368.519531 372.113281 366.679688 371.792969 L 271.542969 355.117188 C 261.476562 360.183594 250.914062 364.347656 240.117188 367.503906 C 239.058594 367.8125 214.082031 375 187.5 375 Z M 187.5 375 " fill-opacity="1" fill-rule="nonzero"/><g fill="#ffffff" fill-opacity="1"><g transform="translate(0.0000045, 319.600452)"><g><path d="M 5.25 -1.265625 L 2.25 -1.265625 L 1.75 0 L -0.046875 0 L 2.921875 -6.875 L 4.703125 -6.875 L 7.609375 0 L 5.734375 0 Z M 4.734375 -2.59375 L 3.765625 -5.125 L 2.75 -2.59375 Z M 4.734375 -2.59375 "/></g></g></g><g fill="#ffffff" fill-opacity="1"><g transform="translate(8.927445, 319.600452)"><g><path d="M 0.6875 -6.875 L 3.6875 -6.875 C 4.5625 -6.875 5.238281 -6.664062 5.71875 -6.25 C 6.207031 -5.832031 6.453125 -5.238281 6.453125 -4.46875 C 6.453125 -3.664062 6.207031 -3.039062 5.71875 -2.59375 C 5.238281 -2.15625 4.5625 -1.9375 3.6875 -1.9375 L 2.4375 -1.9375 L 2.4375 0 L 0.6875 0 Z M 2.4375 -5.5 L 2.4375 -3.3125 L 3.59375 -3.3125 C 3.976562 -3.3125 4.273438 -3.40625 4.484375 -3.59375 C 4.691406 -3.78125 4.796875 -4.054688 4.796875 -4.421875 C 4.796875 -4.773438 4.691406 -5.039062 4.484375 -5.21875 C 4.273438 -5.40625 3.976562 -5.5 3.59375 -5.5 Z M 2.4375 -5.5 "/></g></g></g><g fill="#ffffff" fill-opacity="1"><g transform="translate(16.971952, 319.600452)"><g><path d="M 0.6875 -6.875 L 3.6875 -6.875 C 4.5625 -6.875 5.238281 -6.664062 5.71875 -6.25 C 6.207031 -5.832031 6.453125 -5.238281 6.453125 -4.46875 C 6.453125 -3.664062 6.207031 -3.039062 5.71875 -2.59375 C 5.238281 -2.15625 4.5625 -1.9375 3.6875 -1.9375 L 2.4375 -1.9375 L 2.4375 0 L 0.6875 0 Z M 2.4375 -5.5 L 2.4375 -3.3125 L 3.59375 -3.3125 C 3.976562 -3.3125 4.273438 -3.40625 4.484375 -3.59375 C 4.691406 -3.78125 4.796875 -4.054688 4.796875 -4.421875 C 4.796875 -4.773438 4.691406 -5.039062 4.484375 -5.21875 C 4.273438 -5.40625 3.976562 -5.5 3.59375 -5.5 Z M 2.4375 -5.5 "/></g></g></g><g fill="#ffffff" fill-opacity="1"><g transform="translate(25.01646, 319.600452)"><g><path d="M 0.59375 -1.328125 C 0.75 -1.484375 0.945312 -1.5625 1.1875 -1.5625 C 1.425781 -1.5625 1.625 -1.484375 1.78125 -1.328125 C 1.9375 -1.179688 2.015625 -0.984375 2.015625 -0.734375 C 2.015625 -0.492188 1.9375 -0.296875 1.78125 -0.140625 C 1.625 0.00390625 1.425781 0.078125 1.1875 0.078125 C 0.945312 0.078125 0.75 0.00390625 0.59375 -0.140625 C 0.445312 -0.296875 0.375 -0.492188 0.375 -0.734375 C 0.375 -0.984375 0.445312 -1.179688 0.59375 -1.328125 Z M 0.59375 -1.328125 "/></g></g></g><g fill="#ffffff" fill-opacity="1"><g transform="translate(28.773826, 319.600452)"><g><path d="M 3.90625 -6.921875 C 4.414062 -6.921875 4.914062 -6.816406 5.40625 -6.609375 C 5.90625 -6.398438 6.328125 -6.117188 6.671875 -5.765625 L 5.65625 -4.578125 C 5.4375 -4.847656 5.171875 -5.0625 4.859375 -5.21875 C 4.546875 -5.382812 4.238281 -5.46875 3.9375 -5.46875 C 3.394531 -5.46875 2.9375 -5.273438 2.5625 -4.890625 C 2.195312 -4.503906 2.015625 -4.03125 2.015625 -3.46875 C 2.015625 -2.894531 2.195312 -2.414062 2.5625 -2.03125 C 2.9375 -1.644531 3.394531 -1.453125 3.9375 -1.453125 C 4.21875 -1.453125 4.515625 -1.523438 4.828125 -1.671875 C 5.140625 -1.816406 5.414062 -2.007812 5.65625 -2.25 L 6.6875 -1.171875 C 6.3125 -0.796875 5.867188 -0.492188 5.359375 -0.265625 C 4.859375 -0.0351562 4.351562 0.078125 3.84375 0.078125 C 2.8125 0.078125 1.953125 -0.253906 1.265625 -0.921875 C 0.578125 -1.597656 0.234375 -2.441406 0.234375 -3.453125 C 0.234375 -4.441406 0.582031 -5.265625 1.28125 -5.921875 C 1.976562 -6.585938 2.851562 -6.921875 3.90625 -6.921875 Z M 3.90625 -6.921875 "/></g></g></g><g fill="#ffffff" fill-opacity="1"><g transform="translate(36.936057, 319.600452)"><g><path d="M 3.9375 -6.921875 C 5.007812 -6.921875 5.894531 -6.585938 6.59375 -5.921875 C 7.300781 -5.265625 7.65625 -4.4375 7.65625 -3.4375 C 7.65625 -2.4375 7.300781 -1.597656 6.59375 -0.921875 C 5.882812 -0.253906 5 0.078125 3.9375 0.078125 C 2.882812 0.078125 2.003906 -0.253906 1.296875 -0.921875 C 0.585938 -1.597656 0.234375 -2.4375 0.234375 -3.4375 C 0.234375 -4.445312 0.585938 -5.28125 1.296875 -5.9375 C 2.003906 -6.59375 2.882812 -6.921875 3.9375 -6.921875 Z M 3.96875 -5.46875 C 3.425781 -5.46875 2.960938 -5.269531 2.578125 -4.875 C 2.203125 -4.488281 2.015625 -4.007812 2.015625 -3.4375 C 2.015625 -2.863281 2.207031 -2.378906 2.59375 -1.984375 C 2.976562 -1.585938 3.4375 -1.390625 3.96875 -1.390625 C 4.5 -1.390625 4.945312 -1.585938 5.3125 -1.984375 C 5.6875 -2.378906 5.875 -2.863281 5.875 -3.4375 C 5.875 -4.007812 5.6875 -4.488281 5.3125 -4.875 C 4.945312 -5.269531 4.5 -5.46875 3.96875 -5.46875 Z M 3.96875 -5.46875 "/></g></g></g><g fill="#ffffff" fill-opacity="1"><g transform="translate(11.598697, 214.883058)"><g><path d="M 80.125 -55.546875 C 86.144531 -55.546875 90.929688 -53.632812 94.484375 -49.8125 C 98.046875 -45.988281 99.828125 -40.894531 99.828125 -34.53125 L 99.828125 0 L 82.359375 0 L 82.359375 -29.65625 C 82.359375 -32.90625 81.507812 -35.457031 79.8125 -37.3125 C 78.125 -39.175781 75.820312 -40.109375 72.90625 -40.109375 C 69.65625 -40.046875 67.066406 -38.8125 65.140625 -36.40625 C 63.210938 -34 62.25 -30.898438 62.25 -27.109375 L 62.25 0 L 44.6875 0 L 44.6875 -29.65625 C 44.6875 -32.90625 43.851562 -35.457031 42.1875 -37.3125 C 40.53125 -39.175781 38.25 -40.109375 35.34375 -40.109375 C 32.019531 -40.046875 29.375 -38.796875 27.40625 -36.359375 C 25.445312 -33.921875 24.46875 -30.835938 24.46875 -27.109375 L 24.46875 0 L 7 0 L 7 -54.734375 L 24.46875 -54.734375 L 24.46875 -45.703125 C 28.195312 -52.128906 34.222656 -55.410156 42.546875 -55.546875 C 46.953125 -55.546875 50.757812 -54.445312 53.96875 -52.25 C 57.1875 -50.050781 59.472656 -47.019531 60.828125 -43.15625 C 64.410156 -51.28125 70.84375 -55.410156 80.125 -55.546875 Z M 80.125 -55.546875 "/></g></g></g><g fill="#ffffff" fill-opacity="1"><g transform="translate(116.874495, 214.883058)"><g><path d="M 59.609375 -54.734375 L 35.953125 5.6875 C 31.890625 15.570312 24.847656 20.515625 14.828125 20.515625 C 9.003906 20.515625 3.691406 18.648438 -1.109375 14.921875 L 6.1875 2.9375 C 8.625 4.90625 11.03125 5.890625 13.40625 5.890625 C 16.519531 5.890625 18.785156 4.429688 20.203125 1.515625 L 21.53125 -1.21875 L -1.21875 -54.734375 L 16.859375 -54.734375 L 30.265625 -18.375 L 42.140625 -54.734375 Z M 59.609375 -54.734375 "/></g></g></g><g fill="#ffffff" fill-opacity="1"><g transform="translate(175.75586, 214.883058)"><g><path d="M 7.109375 -71.078125 L 38.078125 -71.078125 C 47.148438 -71.078125 54.191406 -68.925781 59.203125 -64.625 C 64.210938 -60.332031 66.71875 -54.226562 66.71875 -46.3125 C 66.71875 -37.976562 64.210938 -31.507812 59.203125 -26.90625 C 54.191406 -22.300781 47.148438 -20 38.078125 -20 L 25.1875 -20 L 25.1875 0 L 7.109375 0 Z M 25.1875 -56.859375 L 25.1875 -34.21875 L 37.171875 -34.21875 C 41.160156 -34.21875 44.238281 -35.195312 46.40625 -37.15625 C 48.570312 -39.125 49.65625 -41.972656 49.65625 -45.703125 C 49.65625 -49.347656 48.570312 -52.117188 46.40625 -54.015625 C 44.238281 -55.910156 41.160156 -56.859375 37.171875 -56.859375 Z M 25.1875 -56.859375 "/></g></g></g><g fill="#ffffff" fill-opacity="1"><g transform="translate(244.789169, 214.883058)"><g><path d="M 30.96875 -55.34375 C 40.445312 -55.34375 47.570312 -52.429688 52.34375 -46.609375 C 57.113281 -40.785156 59.195312 -32.796875 58.59375 -22.640625 L 20.109375 -22.640625 C 20.984375 -19.390625 22.535156 -16.882812 24.765625 -15.125 C 27.003906 -13.363281 29.75 -12.484375 33 -12.484375 C 38.007812 -12.484375 42.378906 -14.347656 46.109375 -18.078125 L 55.34375 -9.03125 C 49.457031 -2.601562 41.503906 0.609375 31.484375 0.609375 C 22.609375 0.609375 15.546875 -1.925781 10.296875 -7 C 5.054688 -12.082031 2.4375 -18.820312 2.4375 -27.21875 C 2.4375 -35.675781 5.054688 -42.476562 10.296875 -47.625 C 15.546875 -52.769531 22.4375 -55.34375 30.96875 -55.34375 Z M 19.796875 -32.09375 L 41.734375 -32.09375 C 41.734375 -35.40625 40.769531 -38.078125 38.84375 -40.109375 C 36.914062 -42.140625 34.359375 -43.15625 31.171875 -43.15625 C 28.191406 -43.15625 25.6875 -42.15625 23.65625 -40.15625 C 21.625 -38.164062 20.335938 -35.476562 19.796875 -32.09375 Z M 19.796875 -32.09375 "/></g></g></g><g fill="#ffffff" fill-opacity="1"><g transform="translate(305.903958, 214.883058)"><g><path d="M 38.890625 -15.125 L 42.34375 -2.9375 C 38.082031 -0.4375 33.207031 0.8125 27.71875 0.8125 C 22.300781 0.8125 17.914062 -0.691406 14.5625 -3.703125 C 11.21875 -6.710938 9.546875 -10.992188 9.546875 -16.546875 L 9.546875 -40.71875 L 1.921875 -40.71875 L 1.921875 -52.1875 L 9.546875 -52.1875 L 9.546875 -67.421875 L 27.015625 -67.421875 L 27.015625 -52.296875 L 41.328125 -52.296875 L 41.328125 -40.71875 L 27.015625 -40.71875 L 27.015625 -19.296875 C 27.015625 -17.191406 27.4375 -15.648438 28.28125 -14.671875 C 29.125 -13.691406 30.394531 -13.234375 32.09375 -13.296875 C 33.71875 -13.296875 35.984375 -13.90625 38.890625 -15.125 Z M 38.890625 -15.125 "/></g></g></g></svg>